<svg xmlns="http://www.w3.org/2000/svg" width="269.662" height="57" viewBox="0 0 269.662 57">
  <defs>
    <style>
      .cls-1 {
        fill: #3e4243;
        font-size: 43px;
        font-family: Montserrat;
        font-weight: 700;
      }

      .cls-2 {
        fill: #ff7b4b;
      }
    </style>
  </defs>
  <g id="Group_79" data-name="Group 79" transform="translate(-23.338 -31)">
    <text id="AssetNest" class="cls-1" transform="translate(192 77)"><tspan x="-100.477" y="0">Asset</tspan><tspan class="cls-2" y="0">Nest</tspan></text>
    <path id="Path_2" data-name="Path 2" class="cls-2" d="M191.18,54.019l-1.426-.825-4.1-2.366-1.417-.816-6.962-4.02,4.613-2.665-.041.07,16.639,9.611.978-1.691-15.7-9.072,5.379-3.1-.978-1.691L166.455,49.983l-1.43.825-1.119.647V46.22l16.639-9.6-.978-1.691L163.906,43.97V37.8h-1.956V65.814L157.425,63.2V43.986h-1.956V62.072l-5.338-3.083-.978,1.691,21.84,12.611,1.471.85.949.547-.609.352-1.231.713-2.69,1.55L152.245,67.7l-.978,1.691,15.661,9.047-5.338,3.079.978,1.691,10.381-5.993,1.471-.854h0l3.833-2.213h0l1.475-.854,7.087-4.09v5.234l-16.639,9.6.978,1.691,15.661-9.043v6.171h1.956V54.889l.506.29,1.235.713,2.785,1.608V76.672h1.956V58.628l5.338,3.083.978-1.691ZM165.73,68l-1.824-1.053V53.708l1.824-1.053Zm9.681-20.928-.045.075,7.576,4.372.112.066V59.22l-14.347-8.28ZM167.682,52.6l15.371,8.877v2.088l-15.371-8.877Zm11.479,18.769-1.239.713-2.557,1.475L172.8,72.08l-1.235-.709-3.887-2.246V61.4l14.372,8.3Zm3.891-3.349L167.682,59.15v-2.2l15.371,8.873Zm3.771-1.077L185,68V52.706l1.819,1.053Z" transform="translate(-125.815 0.273)"/>
  </g>
</svg>
